# xmcd CD database file
#
# Track frame offsets:
#	150
#	16905
#	30187
#	41645
#	57015
#	86145
#	106720
#	122145
#	136740
#	153220
#	173745
#	199895
#	223610
#	244432
#	256945
#	282300
#	295782
#
# Disc length: 4140 seconds
#
# Revision: 0
# Processed by: cddbd v1.5.2PL0 Copyright (c) Steve Scherf et al.
# Submitted via: CDex 1.70beta2
#
DISCID=e6102a11
DTITLE=Artisti Vari - Sentimental Hits - Live in Concert Vol. 7
DYEAR=1900
DGENRE=New Age
TTITLE0=Boyz II Men - I'll make love to you
TTITLE1=Baby Face - When can I see you again
TTITLE2=All 4 One with John Montgomery - I swear
TTITLE3=Carey, Mariah - Dream lover
TTITLE4=The Eagles - Hotel California
TTITLE5=Sade - Your love Is King
TTITLE6=Springsteen, Bruce - Streets of Philadelphia
TTITLE7=Bush, Kate - Moving
TTITLE8=Boz Scaggs - Slow dancer
TTITLE9=Heart - These dreams
TTITLE10=I.O.C.C. - I'm not in love
TTITLE11=Roxette - Perfect day
TTITLE12=Collins, Phil - Doesnm't anybody stay together anymore?
TTITLE13=Richie, Lionel - Hello
TTITLE14=O'Connor, Sinead - Nothing compres 2 U
TTITLE15=Bangles - Eternal flame
TTITLE16=Jan, Janis - Seventeen
EXTD=
EXTT0=
EXTT1=
EXTT2=
EXTT3=
EXTT4=
EXTT5=
EXTT6=
EXTT7=
EXTT8=
EXTT9=
EXTT10=
EXTT11=
EXTT12=
EXTT13=
EXTT14=
EXTT15=
EXTT16=
PLAYORDER=
